# xmcd
#
# Track frame offsets: 
#        150
#        23738
#        43677
#        61040
#        81463
#        104574
#        124278
#        141459
#        165817
#
# Disc length: 2512 seconds
#
# Revision: 0
# Processed by: cddbd v1.5.2PL0 Copyright (c) Steve Scherf et al.
# Submitted via: ExactAudioCopy v0.95b4
#
DISCID=7609ce09
DTITLE=Country Radio - Country Radio Live
DYEAR=1900
DGENRE=Country
TTITLE0=Some Lonesome Picker
TTITLE1=Never Goin' Back (To Nashville)
TTITLE2=ATerry's Tune
TTITLE3=Listen To The Children
TTITLE4=Silver Spurs
TTITLE5=The Gypsy Queen
TTITLE6=Last Time Around
TTITLE7=Wintersong
TTITLE8=Observations From A Second Storey Window
EXTD=
EXTT0=
EXTT1=
EXTT2=
EXTT3=
EXTT4=
EXTT5=
EXTT6=
EXTT7=
EXTT8=
PLAYORDER=
